<svg width="1162" height="612" viewBox="0 0 1162 612" fill="none" xmlns="http://www.w3.org/2000/svg">
<path d="M-1.93042 509.343L36.7218 536.78C141.19 610.934 274.651 631.109 396.369 591.146L558.758 537.83C587.187 528.497 617.193 524.935 647.017 527.354L708.029 532.304C811.567 540.704 898.694 455.764 892.93 352.046C889.469 289.767 920.132 230.527 972.981 197.394L1086.25 126.381C1092.28 122.604 1098.79 119.675 1105.61 117.675C1191.23 92.5891 1173.56 -33.5181 1084.35 -34.1092L89.3353 -40.7015C-41.4771 -41.5682 -145.092 69.555 -135.09 199.987L-128.52 285.671C-121.646 375.332 -75.2586 457.293 -1.93042 509.343Z" fill="#D95136"/>
</svg>
